<svg xmlns="http://www.w3.org/2000/svg" viewBox="0 0 200 200" fill="none">
  <!-- Back leaves -->
  <path d="M30 130c10-40 30-70 50-85 10 20 15 45 10 70-15 10-35 18-60 15z" fill="#4A9B2E" opacity="0.6"/>
  <path d="M170 130c-10-40-30-70-50-85-10 20-15 45-10 70 15 10 35 18 60 15z" fill="#4A9B2E" opacity="0.6"/>

  <!-- Main leaf body -->
  <path d="M40 145c5-35 22-65 42-82 8 18 14 42 12 65-12 12-30 20-54 17z" fill="#5CB338"/>
  <path d="M160 145c-5-35-22-65-42-82-8 18-14 42-12 65 12 12 30 20 54 17z" fill="#5CB338"/>

  <!-- Center leaf -->
  <path d="M80 155c2-30 10-55 20-72 10 17 18 42 20 72-10 8-20 10-40 0z" fill="#6DC840"/>

  <!-- Veins -->
  <path d="M100 83c-2 20-8 40-18 55" stroke="#4A9B2E" stroke-width="1.5" opacity="0.3" fill="none"/>
  <path d="M100 83c2 20 8 40 18 55" stroke="#4A9B2E" stroke-width="1.5" opacity="0.3" fill="none"/>
  <path d="M100 83c0 25 0 50 0 72" stroke="#4A9B2E" stroke-width="1.5" opacity="0.25" fill="none"/>
  <!-- Secondary veins -->
  <path d="M92 105c-5 5-12 8-20 10" stroke="#4A9B2E" stroke-width="0.8" opacity="0.2" fill="none"/>
  <path d="M108 105c5 5 12 8 20 10" stroke="#4A9B2E" stroke-width="0.8" opacity="0.2" fill="none"/>
  <path d="M95 125c-8 3-15 5-22 5" stroke="#4A9B2E" stroke-width="0.8" opacity="0.2" fill="none"/>
  <path d="M105 125c8 3 15 5 22 5" stroke="#4A9B2E" stroke-width="0.8" opacity="0.2" fill="none"/>

  <!-- Highlight on leaves -->
  <ellipse cx="85" cy="110" rx="12" ry="20" fill="#8BD660" opacity="0.25" transform="rotate(-15 85 110)"/>
  <ellipse cx="115" cy="110" rx="12" ry="20" fill="#8BD660" opacity="0.25" transform="rotate(15 115 110)"/>

  <!-- Water droplets -->
  <circle cx="75" cy="120" r="3" fill="white" opacity="0.3"/>
  <circle cx="75" cy="120" r="1.5" fill="white" opacity="0.2"/>
  <circle cx="120" cy="105" r="2.5" fill="white" opacity="0.25"/>
  <circle cx="95" cy="140" r="2" fill="white" opacity="0.2"/>

  <!-- Shadow -->
  <ellipse cx="100" cy="170" rx="55" ry="5" fill="rgba(0,0,0,0.06)"/>
</svg>
